<svg id="electricity_usage" xmlns="http://www.w3.org/2000/svg" width="50" height="50" viewBox="0 0 50 50">
  <rect id="Rectangle_1195" data-name="Rectangle 1195" width="50" height="50" rx="25" fill="#e5f8ed"/>
  <path id="Union_4" data-name="Union 4" d="M-1639.668-192.045c-.516-.048-1.032-.087-1.547-.145a10.563,10.563,0,0,1-3.91-1.1,5.176,5.176,0,0,1-2.777-4.028,10.774,10.774,0,0,1,1.124-6.327,11.667,11.667,0,0,1,2.78-3.692c.333-.3.7-.555,1.057-.82.188-.139.4-.254.618-.4a2.211,2.211,0,0,1-.41-2.066,2.274,2.274,0,0,1,1.5-1.477l-.56-.978c-.412-.718-.826-1.435-1.236-2.155a.757.757,0,0,1,.516-1.224,15.222,15.222,0,0,1,5.09-.508,15.052,15.052,0,0,1,3.063.544.728.728,0,0,1,.421,1.146c-.557.981-1.121,1.958-1.682,2.936-.044.076-.084.153-.126.232a2.244,2.244,0,0,1,1.092,3.55c.3.2.6.376.885.588a11.866,11.866,0,0,1,4.242,6.034,10.04,10.04,0,0,1,.443,4.589,5.23,5.23,0,0,1-2.89,4.109,10.737,10.737,0,0,1-3.8,1.047c-.515.058-1.031.1-1.547.145Zm-3.318-14.242a10.434,10.434,0,0,0-2.892,4.243,9.124,9.124,0,0,0-.615,4.225,4.028,4.028,0,0,0,1.326,2.735,5.562,5.562,0,0,0,2.34,1.14,18.946,18.946,0,0,0,4.327.471c.8-.046,1.606-.071,2.406-.142a9.5,9.5,0,0,0,3.11-.74,3.932,3.932,0,0,0,2.351-2.74,7.18,7.18,0,0,0,.012-3.189,10.485,10.485,0,0,0-3.971-6.472,6.346,6.346,0,0,0-3.658-1.37q-.116,0-.232,0A6.709,6.709,0,0,0-1642.986-206.287Zm6.489-3.023a.672.672,0,0,0,.874-.664.754.754,0,0,0-.6-.731,7.332,7.332,0,0,0-3.175-.289,10.594,10.594,0,0,0-1.469.332.7.7,0,0,0-.469.89.661.661,0,0,0,.877.452,7.34,7.34,0,0,1,1.966-.272A7.317,7.317,0,0,1-1636.5-209.31Zm-.963-3.137a.28.28,0,0,0,.307-.155c.4-.707.8-1.409,1.206-2.113.1-.167.192-.334.3-.519a13.5,13.5,0,0,0-5.669-.006.289.289,0,0,0,.012.07c.5.873,1,1.748,1.5,2.615a.343.343,0,0,0,.255.1c.289,0,.578,0,.867,0h.294C-1638.079-212.456-1637.77-212.455-1637.46-212.448Zm.233,16.154-1.4-2.263q-.2-.332-.384-.581a2.172,2.172,0,0,0-.386-.414,1.468,1.468,0,0,0-.453-.248,1.845,1.845,0,0,0-.58-.083h-.565v-1.067h1.167a2.084,2.084,0,0,0,.595-.083,1.794,1.794,0,0,0,.506-.233,1.578,1.578,0,0,0,.381-.356,1.291,1.291,0,0,0,.223-.457h-2.871v-1h2.884a1.314,1.314,0,0,0-.163-.414.979.979,0,0,0-.319-.319,1.6,1.6,0,0,0-.509-.2,3.18,3.18,0,0,0-.721-.071H-1641l.005-1.006h5.724v1.006h-1.84a1.7,1.7,0,0,1,.292.448,1.893,1.893,0,0,1,.15.558h1.4v1h-1.436a2.182,2.182,0,0,1-.653,1.159,2.715,2.715,0,0,1-1.3.662v.025a2.376,2.376,0,0,1,.387.227,2.579,2.579,0,0,1,.344.3,3.929,3.929,0,0,1,.328.392q.163.221.346.5l1.657,2.522Z" transform="translate(1664 230.091)" fill="#28c76f" stroke="rgba(0,0,0,0)" stroke-width="1"/>
</svg>
