<svg id="electricity_usage" xmlns="http://www.w3.org/2000/svg" width="50" height="50" viewBox="0 0 50 50">
  <rect id="Rectangle_1195" data-name="Rectangle 1195" width="50" height="50" rx="25" fill="#eeedfd"/>
  <g id="Group_5601" data-name="Group 5601" transform="translate(-95.231 -489.6)">
    <path id="Path_26540" data-name="Path 26540" d="M177.651,501.6c.474.082.951.148,1.42.249a8.968,8.968,0,0,1,5.235,13.963c-.308.443-.678.843-.989,1.284a5.75,5.75,0,0,0-1.071,3.467q.008.612,0,1.223a2.252,2.252,0,0,1-1.4,2.171.439.439,0,0,0-.2.275,3.737,3.737,0,0,1-7.3,0,.467.467,0,0,0-.217-.287,2.233,2.233,0,0,1-1.373-2.06c-.017-.39-.013-.782,0-1.173a6.043,6.043,0,0,0-1.551-4.252,8.9,8.9,0,0,1-2.2-6.125,8.992,8.992,0,0,1,5.4-8.007,9.15,9.15,0,0,1,2.769-.689,1.072,1.072,0,0,0,.166-.04Zm3.114,18.023c.092-.408.165-.8.268-1.183a8.648,8.648,0,0,1,1.774-3.145,7.261,7.261,0,0,0,1.582-5.885A7.128,7.128,0,0,0,182.3,505.3a7.255,7.255,0,0,0-6.091-2.15,7.044,7.044,0,0,0-6.034,4.38,7.24,7.24,0,0,0,1.194,7.975,7.893,7.893,0,0,1,1.605,2.927c.107.389.178.787.267,1.186Zm-7.509,1.513c0,.232,0,.439,0,.645a.764.764,0,0,0,.852.844c.757,0,1.513,0,2.27,0q1.771,0,3.542,0a.738.738,0,0,0,.809-.621,7.263,7.263,0,0,0,.007-.869Zm1.664,3a2.174,2.174,0,0,0,4.158,0Z" transform="translate(-56.987)" fill="#7367f0"/>
    <path id="Path_26541" data-name="Path 26541" d="M471.826,646.408a.926.926,0,0,1-1,.555c-.4-.025-.8,0-1.2-.006a.749.749,0,1,1,0-1.5c.4,0,.8.02,1.2-.007a.923.923,0,0,1,1,.555Z" transform="translate(-339.026 -134.869)" fill="#7367f0"/>
    <path id="Path_26542" data-name="Path 26542" d="M113.228,566.8a.776.776,0,0,1-.422.746.662.662,0,0,1-.773-.076c-.416-.382-.82-.78-1.2-1.2a.737.737,0,0,1,1.045-1.028c.4.37.79.762,1.163,1.164A1.241,1.241,0,0,1,113.228,566.8Z" transform="translate(-3.219 -59.509)" fill="#7367f0"/>
    <path id="Path_26543" data-name="Path 26543" d="M474.9,565.935a1.868,1.868,0,0,1-.244.43c-.325.356-.672.692-1.02,1.026a.747.747,0,1,1-1.058-1.053q.518-.54,1.06-1.056a.7.7,0,0,1,.832-.128A.789.789,0,0,1,474.9,565.935Z" transform="translate(-342.315 -59.509)" fill="#7367f0"/>
    <path id="Path_26544" data-name="Path 26544" d="M113.3,709.935a1.873,1.873,0,0,1-.244.43c-.325.356-.672.692-1.02,1.026a.747.747,0,1,1-1.058-1.053q.518-.54,1.061-1.056a.7.7,0,0,1,.832-.128A.789.789,0,0,1,113.3,709.935Z" transform="translate(-3.29 -194.519)" fill="#7367f0"/>
    <path id="Path_26545" data-name="Path 26545" d="M474.8,710.791a.776.776,0,0,1-.417.745.649.649,0,0,1-.752-.057c-.43-.391-.846-.8-1.235-1.231a.737.737,0,0,1,1.054-1.014c.41.376.8.775,1.179,1.183A1.142,1.142,0,0,1,474.8,710.791Z" transform="translate(-342.221 -194.509)" fill="#7367f0"/>
    <path id="Path_26546" data-name="Path 26546" d="M108.725,647.039c-.25,0-.5.007-.749,0a.746.746,0,1,1,.005-1.493q.749-.013,1.5,0a.746.746,0,1,1-.005,1.493C109.224,647.045,108.974,647.039,108.725,647.039Z" transform="translate(0 -134.951)" fill="#7367f0"/>
    <path id="Path_26547" data-name="Path 26547" d="M301,549.61a6.01,6.01,0,0,1,5.642,4.8,7.345,7.345,0,0,1,.117,1.09.75.75,0,0,1-.718.847.758.758,0,0,1-.774-.8,4.455,4.455,0,0,0-1.885-3.6,4.354,4.354,0,0,0-2.365-.836c-.108-.007-.217,0-.324-.016a.747.747,0,0,1,.058-1.489C300.833,549.607,300.916,549.61,301,549.61Z" transform="translate(-180.757 -45.012)" fill="#7367f0"/>
  </g>
</svg>
