<svg xmlns="http://www.w3.org/2000/svg" width="20.5" height="16.278" viewBox="0 0 20.5 16.278">
  <g id="Control_tab" transform="translate(0.25 0.25)">
    <path id="Path_25231" data-name="Path 25231" d="M386.431,489.2a.574.574,0,0,1,.577-.306c.963.009,1.927,0,2.891,0,.094,0,.175.018.219-.122a1.955,1.955,0,0,1,1.925-1.45,2.021,2.021,0,0,1,1.886,1.49l.025.082h11.862a1.351,1.351,0,0,1,.291.021.412.412,0,0,1,.324.429.421.421,0,0,1-.381.4,2.473,2.473,0,0,1-.254.007q-5.8,0-11.6,0c-.171,0-.254.032-.311.217a1.944,1.944,0,0,1-1.87,1.364,2,2,0,0,1-1.869-1.378.243.243,0,0,0-.283-.2c-.963.007-1.927,0-2.891.007a.514.514,0,0,1-.541-.326Zm6.726.137a1.139,1.139,0,0,0-1.126-1.153,1.146,1.146,0,1,0,1.126,1.153Z" transform="translate(-386.431 -481.424)" fill="#373737" stroke-width="0.5"/>
    <path id="Path_25232" data-name="Path 25232" d="M386.431,415.073a.592.592,0,0,1,.6-.3c2.3.006,4.609,0,6.913.007a.24.24,0,0,0,.281-.2,1.955,1.955,0,0,1,1.865-1.373,2,2,0,0,1,1.883,1.384.232.232,0,0,0,.272.192q3.779-.007,7.558,0a1.366,1.366,0,0,1,.272.019.423.423,0,0,1-.039.832,2.185,2.185,0,0,1-.253.008q-3.769,0-7.538,0c-.166,0-.243.033-.3.208a1.953,1.953,0,0,1-1.863,1.375,1.994,1.994,0,0,1-1.869-1.35c-.065-.2-.154-.234-.342-.234-2.278.007-4.557,0-6.835.008a.615.615,0,0,1-.606-.291Zm9.662,1.3a1.141,1.141,0,1,0,.015-2.282,1.127,1.127,0,0,0-1.158,1.14A1.145,1.145,0,0,0,396.093,416.371Z" transform="translate(-386.431 -413.2)" fill="#373737" stroke-width="0.5"/>
    <path id="Path_25233" data-name="Path 25233" d="M386.431,562.952a.613.613,0,0,1,.605-.29q5.546.009,11.092.008c.167,0,.245-.036.3-.209a1.952,1.952,0,0,1,1.863-1.374,2,2,0,0,1,1.883,1.386.232.232,0,0,0,.268.2c1.152-.008,2.3-.005,3.457,0,.314,0,.489.142.5.4a.409.409,0,0,1-.347.447,1.284,1.284,0,0,1-.233.015c-1.133,0-2.265,0-3.4,0-.15,0-.223.031-.273.19a1.952,1.952,0,0,1-1.874,1.387,2.027,2.027,0,0,1-1.885-1.389c-.018-.055-.034-.111-.057-.185h-.251q-5.527,0-11.053,0a.594.594,0,0,1-.6-.3Zm13.853-.978a1.144,1.144,0,1,0,1.138,1.148A1.145,1.145,0,0,0,400.284,561.973Z" transform="translate(-386.431 -549.32)" fill="#373737" stroke-width="0.5"/>
  </g>
</svg>
