<svg id="Energy_tab" xmlns="http://www.w3.org/2000/svg" width="14.893" height="20" viewBox="0 0 14.893 20">
  <path id="Path_25216" data-name="Path 25216" d="M-2629.319,980.979c-.3-.056-.6-.095-.9-.172a5.281,5.281,0,0,1-3.9-4.427c0-.032-.009-.064-.012-.086a7.43,7.43,0,0,1-1.671-.346c-1.594-.437-4.024-2.626-4.044-4.869-.008-.918,0-1.836,0-2.754v-.236c-.186,0-.36,0-.533,0a.59.59,0,0,1-.638-.63q0-1.133,0-2.265a.586.586,0,0,1,.628-.619c.5,0,1,0,1.5,0h.21v-.285c0-.9,0-1.81,0-2.715a.585.585,0,0,1,.536-.592.586.586,0,0,1,.618.459,1.054,1.054,0,0,1,.016.233c0,.957,0,1.913,0,2.885h7.859v-.2c0-.918,0-1.836,0-2.754a.582.582,0,0,1,.832-.562.581.581,0,0,1,.339.569q0,1.367,0,2.734v.232h.674c.358,0,.716,0,1.074,0a.575.575,0,0,1,.593.574q.011,1.181,0,2.363a.578.578,0,0,1-.591.576c-.182,0-.364,0-.578,0v.211q0,1.318,0,2.636c0,2.684-2.815,4.832-5.464,5.29-.056.01-.113.023-.182.037a3.924,3.924,0,0,0,.778,1.894,4.047,4.047,0,0,0,3.2,1.648.613.613,0,0,1,.656.466.6.6,0,0,1-.393.679c-.01.005-.015.019-.023.029Zm-10.527-14.062h.5a.6.6,0,0,1,.665.661c0,.872,0,1.744,0,2.617,0,.442-.009.887.038,1.325.252,2.37,3.622,4.041,5.947,3.5,1.91-.443,4.211-2.073,4.217-4.034,0-1.146,0-2.291,0-3.437a.589.589,0,0,1,.634-.633c.174,0,.347,0,.524,0v-1.156h-12.529Z" transform="translate(2641.023 -960.979)" fill="#373737"/>
  <path id="Path_25217" data-name="Path 25217" d="M-2548.13,1100.443l-1.089-.548c-.179-.09-.363-.174-.539-.272a.572.572,0,0,1-.152-.924q.587-.613,1.2-1.2a.548.548,0,0,1,.789.014.549.549,0,0,1,.038.8c-.195.208-.414.392-.65.612l.989.5c.215.108.433.21.644.324a.577.577,0,0,1,.157.949q-.575.6-1.174,1.172a.553.553,0,0,1-.817-.018.553.553,0,0,1,0-.817C-2548.544,1100.837-2548.344,1100.652-2548.13,1100.443Z" transform="translate(2555.767 -1090.237)" fill="#373737"/>
</svg>
