<svg id="home" xmlns="http://www.w3.org/2000/svg" width="20" height="20" viewBox="0 0 20 20">
  <path id="Path_25169" data-name="Path 25169" d="M1060,527.273v-.547a2.775,2.775,0,0,1,.9-1.4q3.716-3.7,7.415-7.415a2.8,2.8,0,0,1,1.41-.915h.547a2.769,2.769,0,0,1,1.4.9q3.711,3.729,7.44,7.44a2.669,2.669,0,0,1,.89,1.425v.469a.552.552,0,0,0-.034.089,1.825,1.825,0,0,1-1.818,1.515c-.094,0-.189,0-.294,0v.263c0,1.932.005,3.864,0,5.8a2.129,2.129,0,0,1-1.5,2c-.123.038-.248.068-.372.1h-3.594a.693.693,0,0,1-.466-.744c.009-1.489.005-2.978,0-4.467a.987.987,0,0,0-1.071-1.067c-.553,0-1.105,0-1.658,0a1,1,0,0,0-1.112,1.1c0,1.476-.006,2.952,0,4.428a.694.694,0,0,1-.465.746h-3.594c-.016-.01-.032-.026-.049-.028a2.186,2.186,0,0,1-1.836-2.249c.026-1.88.007-3.762.007-5.642v-.243c-.136,0-.246,0-.355,0a1.8,1.8,0,0,1-1.584-1A4.121,4.121,0,0,1,1060,527.273Z" transform="translate(-1060 -517)" fill="#373737"/>
</svg>
