<svg xmlns="http://www.w3.org/2000/svg" width="60" height="60" viewBox="0 0 60 60">
  <g id="electricity_usage" transform="translate(0 0)">
    <rect id="Rectangle_1195" data-name="Rectangle 1195" width="60" height="60" rx="30" transform="translate(0 0)" fill="#eeedfd"/>
    <g id="Group_5685" data-name="Group 5685" transform="translate(-372.938 -306.5)">
      <path id="Path_26616" data-name="Path 26616" d="M403.419,320.5a17.364,17.364,0,0,1,1.9.376,9.5,9.5,0,0,1,6.945,7.416,9.812,9.812,0,0,1-.774,6.057,20.979,20.979,0,0,1-2.254,3.816q-2.841,4.009-5.682,8.019a.945.945,0,0,1-1.729,0c-2.038-2.882-4.087-5.755-6.114-8.644a15.579,15.579,0,0,1-2.492-5.174,9.489,9.489,0,0,1,4.758-10.651,9.993,9.993,0,0,1,3.81-1.164.919.919,0,0,0,.172-.049Zm-.737,23.722c.087-.117.147-.2.205-.277l4.758-6.7a18.7,18.7,0,0,0,2.316-3.987,7.923,7.923,0,0,0,.186-5.793,8.009,8.009,0,0,0-9.071-4.971A7.769,7.769,0,0,0,395,331.947a11.949,11.949,0,0,0,1.822,3.955c1.218,1.772,2.485,3.509,3.726,5.266C401.257,342.17,401.954,343.179,402.682,344.222Z" fill="#7367f0"/>
      <path id="Path_26617" data-name="Path 26617" d="M416.4,600.814c-.484-.307-.93-.582-1.368-.87a.907.907,0,0,1-.406-.976.851.851,0,0,1,.76-.686,1.289,1.289,0,0,1,.685.171c.826.494,1.635,1.017,2.447,1.536a.917.917,0,0,1-.007,1.652q-2.285,1.452-4.577,2.891c-1.089.688-2.188,1.359-3.261,2.07a1.2,1.2,0,0,1-1.479,0c-2.586-1.659-5.19-3.289-7.787-4.93a.931.931,0,0,1,0-1.731q1.181-.75,2.366-1.494a.918.918,0,1,1,.962,1.552c-.393.251-.788.5-1.181.75-.016.01-.024.031-.052.071.044.032.086.068.132.1q3.034,1.917,6.072,3.828a.437.437,0,0,0,.366.052C412.168,603.494,414.257,602.17,416.4,600.814Z" transform="translate(-7.242 -255.214)" fill="#7367f0"/>
      <path id="Path_26618" data-name="Path 26618" d="M455.144,378.53a5.109,5.109,0,1,1-5.109,5.116A5.128,5.128,0,0,1,455.144,378.53Zm.014,8.391a3.281,3.281,0,1,0-3.3-3.282A3.285,3.285,0,0,0,455.159,386.921Z" transform="translate(-52.46 -53.318)" fill="#7367f0"/>
    </g>
  </g>
</svg>
