<svg xmlns="http://www.w3.org/2000/svg" width="60" height="60" viewBox="0 0 60 60">
  <g id="electricity_usage" transform="translate(0 0)">
    <rect id="Rectangle_1195" data-name="Rectangle 1195" width="60" height="60" rx="30" transform="translate(0 0)" fill="#fceaea"/>
    <g id="Group_5686" data-name="Group 5686" transform="translate(85.655 -239.75)">
      <path id="Path_26619" data-name="Path 26619" d="M-52.635,284.9h-5.84a.612.612,0,0,0-.109-.049,2.432,2.432,0,0,1-1.954-2.1q-.119-.735-.245-1.468a1.818,1.818,0,0,0-2.5-1.455c-.514.186-1.02.392-1.537.571a2.4,2.4,0,0,1-2.942-1.07q-1.292-2.2-2.552-4.42a2.4,2.4,0,0,1,.558-3.1c.416-.356.848-.693,1.264-1.048a1.814,1.814,0,0,0,0-2.856c-.4-.342-.816-.668-1.218-1.008a2.408,2.408,0,0,1-.574-3.194q1.237-2.163,2.491-4.315a2.414,2.414,0,0,1,3.057-1.094c.5.185,1,.388,1.507.563a1.82,1.82,0,0,0,2.442-1.446c.087-.5.168-1,.249-1.5a2.431,2.431,0,0,1,1.953-2.1.644.644,0,0,0,.109-.049h5.84a.64.64,0,0,0,.109.049,2.432,2.432,0,0,1,1.953,2.1q.12.735.245,1.468a1.819,1.819,0,0,0,2.5,1.454c.5-.182,1-.384,1.507-.563a2.409,2.409,0,0,1,2.971,1.063q1.293,2.2,2.552,4.42a2.4,2.4,0,0,1-.558,3.1c-.415.356-.848.693-1.264,1.048a1.812,1.812,0,0,0,0,2.855c.4.342.815.668,1.218,1.008a2.409,2.409,0,0,1,.574,3.194q-1.237,2.163-2.491,4.315a2.416,2.416,0,0,1-3.058,1.093c-.5-.185-1-.387-1.507-.562a1.818,1.818,0,0,0-2.441,1.446c-.086.5-.167,1-.249,1.5a2.433,2.433,0,0,1-1.953,2.1A.619.619,0,0,0-52.635,284.9ZM-53,282.455c.082-.493.169-.971.242-1.451a4.243,4.243,0,0,1,5.179-3.637,16.053,16.053,0,0,1,1.918.669c.156.058.236.039.314-.108.147-.277.311-.545.467-.817l1.98-3.433c-.408-.337-.805-.666-1.2-.993a4.252,4.252,0,0,1,0-6.724c.4-.327.8-.656,1.2-.993-.828-1.434-1.646-2.855-2.475-4.27a.283.283,0,0,0-.255-.084c-.422.141-.838.3-1.254.46a4.262,4.262,0,0,1-2.414.252,4.271,4.271,0,0,1-3.462-3.684c-.073-.485-.162-.969-.242-1.439h-5.119c-.082.5-.167.974-.24,1.454a4.249,4.249,0,0,1-5.192,3.621,14.51,14.51,0,0,1-1.83-.647.284.284,0,0,0-.426.152c-.754,1.33-1.524,2.651-2.288,3.976-.039.068-.071.14-.11.217.385.318.759.628,1.135.937a4.257,4.257,0,0,1,0,6.822c-.38.313-.759.628-1.142.945.83,1.438,1.646,2.849,2.457,4.263.077.135.151.151.292.1.461-.182.927-.351,1.393-.521a4.242,4.242,0,0,1,5.664,3.235c.105.564.2,1.131.3,1.7Z" transform="translate(0 0)" fill="#ea5c5d"/>
      <path id="Path_26620" data-name="Path 26620" d="M47.464,383.709a6.007,6.007,0,1,1,6-6A6.031,6.031,0,0,1,47.464,383.709Zm-3.576-6.052a3.573,3.573,0,1,0,3.6-3.528A3.6,3.6,0,0,0,43.888,377.657Z" transform="translate(-103.015 -108.379)" fill="#ea5c5d"/>
    </g>
  </g>
</svg>
