<svg xmlns="http://www.w3.org/2000/svg" width="60" height="60" viewBox="0 0 60 60">
  <g id="electricity_usage" transform="translate(0 0)">
    <rect id="Rectangle_1195" data-name="Rectangle 1195" width="60" height="60" rx="30" transform="translate(0 0)" fill="#e5f8ed"/>
    <g id="Group_5688" data-name="Group 5688" transform="translate(-1322.5 -219.5)">
      <path id="Path_26633" data-name="Path 26633" d="M1336.5,329.941c.028-.107.058-.213.085-.32a3.136,3.136,0,0,1,3.017-2.414c1.034-.014,2.068,0,3.1,0h.366v-.375q0-3.513,0-7.026a.917.917,0,0,1,.816-1,.905.905,0,0,1,1.007.958c0,1.379,0,2.757,0,4.136v3.29h6.266v-.352q0-3.224,0-6.448a.911.911,0,0,1,1.308-.89.935.935,0,0,1,.517.923q-.006,3.209,0,6.417v.346h6.266v-.34q0-3.528,0-7.056a.911.911,0,0,1,1.273-.915.922.922,0,0,1,.552.931q0,3.026,0,6.052V327.2h.338q1.475,0,2.95,0a3.142,3.142,0,0,1,3.281,3.265q0,3.148,0,6.3a3.111,3.111,0,0,1-2.167,3.049.358.358,0,0,0-.26.321c-.135.7-.271,1.391-.418,2.084a.9.9,0,0,1-.984.8q-1.84,0-3.68,0a.927.927,0,0,1-1.01-.846c-.147-.723-.292-1.446-.44-2.18H1345.46q-.22,1.087-.439,2.167a.928.928,0,0,1-1.029.859q-1.825,0-3.65,0a.91.91,0,0,1-1-.817c-.145-.683-.277-1.369-.413-2.054a.358.358,0,0,0-.249-.329,3.08,3.08,0,0,1-2.129-2.436,1,1,0,0,0-.051-.141Zm15.572-.912h-12.226a1.342,1.342,0,0,0-1.521,1.507q0,3.056,0,6.113a1.339,1.339,0,0,0,1.493,1.505h24.512a1.34,1.34,0,0,0,1.491-1.507q0-3.041,0-6.082a1.348,1.348,0,0,0-1.524-1.535Zm-8.481,10.963h-2.835l.242,1.184h2.363Zm19.8.009h-2.835l.237,1.178h2.361Z" transform="translate(0 -78.374)" fill="#4ad086"/>
      <path id="Path_26634" data-name="Path 26634" d="M1487.617,233.5c.321.081.647.147.963.246a4.536,4.536,0,0,1,1.826,1.107.912.912,0,1,1-1.242,1.333,2.958,2.958,0,0,0-4.189,0,.911.911,0,1,1-1.241-1.332,4.7,4.7,0,0,1,2.59-1.3,1.615,1.615,0,0,0,.2-.058Z" transform="translate(-134.996)" fill="#4ad086"/>
      <path id="Path_26635" data-name="Path 26635" d="M1341.549,233.5a.308.308,0,0,0,.062.057.926.926,0,0,1,.585,1.019.942.942,0,0,1-.969.752,2.882,2.882,0,0,0-2.629,1.756,3.552,3.552,0,0,0-.261,1.113.986.986,0,0,1-.76,1,.934.934,0,0,1-1.031-.613c-.008-.015-.03-.023-.046-.034v-.791a1.187,1.187,0,0,0,.054-.169,4.655,4.655,0,0,1,2.66-3.6,10.585,10.585,0,0,1,1.545-.491Z" fill="#4ad086"/>
      <path id="Path_26636" data-name="Path 26636" d="M1651.489,233.5c.176.04.351.082.527.12a4.806,4.806,0,0,1,3.729,4.566.917.917,0,1,1-1.825.043,2.974,2.974,0,0,0-2.868-2.9.948.948,0,0,1-1-.751.933.933,0,0,1,.613-1.031c.015-.008.023-.03.034-.046Z" transform="translate(-288.101)" fill="#4ad086"/>
      <path id="Path_26637" data-name="Path 26637" d="M1636.772,273.178a2.735,2.735,0,0,1,2.631,2.7.911.911,0,0,1-.832.953.929.929,0,0,1-.981-.8c-.131-.789-.239-.9-1.046-1.038a.912.912,0,1,1,.229-1.809Z" transform="translate(-274.974 -36.46)" fill="#4ad086"/>
      <path id="Path_26638" data-name="Path 26638" d="M1503.491,279.074a2.67,2.67,0,0,1,1.9.756.911.911,0,1,1-1.213,1.36.929.929,0,0,0-1.361,0,.911.911,0,1,1-1.2-1.374A2.682,2.682,0,0,1,1503.491,279.074Z" transform="translate(-151.421 -41.878)" fill="#4ad086"/>
      <path id="Path_26639" data-name="Path 26639" d="M1376.175,275.807a2.734,2.734,0,0,1,2.687-2.643.909.909,0,1,1,.082,1.815.917.917,0,0,0-.822.479,1.36,1.36,0,0,0-.123.461.942.942,0,0,1-.96.9A.915.915,0,0,1,1376.175,275.807Z" transform="translate(-36.457 -36.447)" fill="#4ad086"/>
      <path id="Path_26640" data-name="Path 26640" d="M1384.293,467.513a2.737,2.737,0,1,1-2.777,2.68A2.742,2.742,0,0,1,1384.293,467.513Zm-.045,1.825a.911.911,0,1,0,.915.9A.922.922,0,0,0,1384.248,469.337Z" transform="translate(-41.365 -215.032)" fill="#4ad086"/>
      <path id="Path_26641" data-name="Path 26641" d="M1466.747,472.984a2.737,2.737,0,1,1,2.738-2.72A2.745,2.745,0,0,1,1466.747,472.984Zm.912-2.692a.912.912,0,1,0-.948.867A.924.924,0,0,0,1467.659,470.292Z" transform="translate(-117.169 -215.03)" fill="#4ad086"/>
      <path id="Path_26642" data-name="Path 26642" d="M1558.9,491.813c-1.316,0-2.633,0-3.949,0a.907.907,0,0,1-.895-1.243.868.868,0,0,1,.849-.578q4.01-.007,8.02,0a.91.91,0,1,1-.015,1.819C1561.568,491.818,1560.232,491.813,1558.9,491.813Z" transform="translate(-199.842 -235.684)" fill="#4ad086"/>
    </g>
  </g>
</svg>
