<svg xmlns="http://www.w3.org/2000/svg" width="60" height="60" viewBox="0 0 60 60">
  <g id="electricity_usage" transform="translate(0 0)">
    <rect id="Rectangle_1195" data-name="Rectangle 1195" width="60" height="60" rx="30" transform="translate(0 0)" fill="#e0f9fc"/>
    <g id="Group_5687" data-name="Group 5687" transform="translate(-912.784 -232.932)">
      <path id="Path_26621" data-name="Path 26621" d="M931.009,265.5c-.275,0-.5.006-.716,0a.465.465,0,0,1-.505-.515c0-.807-.007-1.614,0-2.421,0-.348.179-.506.54-.518.208-.007.417,0,.661,0,.007-.164.019-.3.019-.427q0-3.966,0-7.932c0-.546.156-.7.713-.7h.846v-.4q0-2.476,0-4.953c0-.561.14-.7.7-.7H952.86c.556,0,.693.141.693.711q0,2.439,0,4.878v.461h.825c.588,0,.73.14.731.719q0,3.929,0,7.857v.483c.259,0,.479,0,.7,0a.46.46,0,0,1,.52.5q.012,1.229,0,2.458a.461.461,0,0,1-.518.5c-.21,0-.42,0-.678,0-.008.159-.02.3-.02.443q0,2.681,0,5.362c0,.585-.142.725-.721.727h-.833c0,.153,0,.284,0,.415q0,2.477,0,4.953c0,.533-.148.679-.687.679H933.281c-.574,0-.711-.144-.711-.736,0-1.75,0-3.5,0-5.311-.307,0-.6,0-.89,0-.506,0-.669-.161-.669-.667q0-2.737,0-5.474Zm23.138-11.547h-22.17v8.07h22.17Zm0,17.118v-5.547h-1.314c0,.155,0,.288,0,.421,0,1.167,0,2.334,0,3.5,0,.571-.136.708-.7.709q-1.713,0-3.426,0c-.545,0-.689-.143-.691-.68q0-1.75,0-3.5v-.453h-2.525c-.006.137-.017.258-.017.379,0,1.192,0,2.383,0,3.575,0,.538-.145.679-.69.68q-1.713,0-3.426,0c-.558,0-.692-.139-.692-.712q0-1.75,0-3.5v-.412h-2.539v.434q0,1.75,0,3.5c0,.535-.153.687-.687.688q-1.731,0-3.463,0c-.533,0-.672-.147-.672-.7q0-1.787,0-3.575c0-.119-.011-.238-.017-.362h-1.3v5.55Zm-23.428-8.08c0,.4.024.781-.007,1.159-.029.351.1.43.436.43q11.916-.014,23.832-.008c.132,0,.264-.011.408-.018v-1.563Zm16.163-10.031h5.7v-5.066h-5.7Zm0,19.086v5.071h5.7v-5.071Zm-13.341-19.087h5.716V247.9h-5.716Zm-.006,24.154h5.723v-5.047h-5.723Zm12.359-24.147V247.9h-5.652v5.059Zm-5.652,19.089v5.059h5.656v-5.059Zm4.276-2.855v-3.667h-2.9V269.2Zm-10.248-.019h2.887v-3.657h-2.887Zm14.713-3.66v3.664h2.884v-3.664Z" transform="translate(0 0)" fill="#2ad6eb" stroke="#2ad6eb" stroke-width="0.3"/>
      <path id="Path_26622" data-name="Path 26622" d="M973.141,360.139c0-.707,0-1.414,0-2.122,0-.517.153-.679.655-.681q1.9-.006,3.8,0c.49,0,.652.161.653.645q0,2.2,0,4.392c0,.436-.171.6-.617.6q-1.936,0-3.871,0c-.454,0-.614-.168-.616-.639C973.138,361.6,973.14,360.872,973.141,360.139Zm4.144-1.842h-3.169v3.714h3.169Z" transform="translate(-40.127 -102.179)" fill="#2ad6eb" stroke="#2ad6eb" stroke-width="0.3"/>
      <path id="Path_26623" data-name="Path 26623" d="M1058.819,358.246h-6.44c-.124,0-.284.04-.364-.022-.153-.118-.342-.286-.358-.45-.013-.135.18-.322.324-.428.093-.068.263-.041.4-.041q6.478,0,12.955,0a1.588,1.588,0,0,1,.37.023c.248.06.422.241.352.482a.98.98,0,0,1-.394.421c-.074.054-.217.014-.328.014Z" transform="translate(-112.794 -102.147)" fill="#2ad6eb" stroke="#2ad6eb" stroke-width="0.3"/>
      <path id="Path_26624" data-name="Path 26624" d="M1178.741,274.659a1.432,1.432,0,1,1-1.427,1.426A1.437,1.437,0,0,1,1178.741,274.659Zm.5,1.447a.5.5,0,0,0-.475-.511.509.509,0,0,0-.506.485.5.5,0,0,0,.48.508A.489.489,0,0,0,1179.243,276.105Z" transform="translate(-229.092 -25.662)" fill="#2ad6eb" stroke="#2ad6eb" stroke-width="0.3"/>
      <path id="Path_26625" data-name="Path 26625" d="M1180.193,600.326a1.438,1.438,0,1,1-1.446-1.432A1.437,1.437,0,0,1,1180.193,600.326Zm-1.449-.5a.51.51,0,0,0-.478.513.5.5,0,0,0,.507.482.5.5,0,0,0-.03-1Z" transform="translate(-229.095 -325.745)" fill="#2ad6eb" stroke="#2ad6eb" stroke-width="0.3"/>
      <path id="Path_26626" data-name="Path 26626" d="M1001.548,277.528a1.432,1.432,0,0,1-.013-2.863,1.432,1.432,0,1,1,.013,2.863Zm.5-1.437a.523.523,0,0,0-.5-.493.5.5,0,0,0,.013,1A.509.509,0,0,0,1002.044,276.091Z" transform="translate(-65.092 -25.667)" fill="#2ad6eb" stroke="#2ad6eb" stroke-width="0.3"/>
      <path id="Path_26627" data-name="Path 26627" d="M1001.49,601.76a1.434,1.434,0,1,1,1.466-1.419A1.442,1.442,0,0,1,1001.49,601.76Zm-.031-.935a.523.523,0,0,0,.548-.446.5.5,0,0,0-.439-.549.5.5,0,0,0-.109,1Z" transform="translate(-65.056 -325.742)" fill="#2ad6eb" stroke="#2ad6eb" stroke-width="0.3"/>
      <path id="Path_26628" data-name="Path 26628" d="M1091.657,276.076a1.433,1.433,0,1,1,1.418,1.456A1.426,1.426,0,0,1,1091.657,276.076Zm1.436-.471a.524.524,0,0,0-.5.494.5.5,0,0,0,1,0A.519.519,0,0,0,1093.092,275.605Z" transform="translate(-149.815 -25.672)" fill="#2ad6eb" stroke="#2ad6eb" stroke-width="0.3"/>
      <path id="Path_26629" data-name="Path 26629" d="M1094.543,600.337a1.433,1.433,0,1,1-1.436-1.438A1.43,1.43,0,0,1,1094.543,600.337Zm-.933.011a.5.5,0,0,0-1-.035.5.5,0,0,0,1,.035Z" transform="translate(-149.835 -325.749)" fill="#2ad6eb" stroke="#2ad6eb" stroke-width="0.3"/>
      <path id="Path_26630" data-name="Path 26630" d="M1101.8,507.129c0-.248-.009-.5,0-.743a.457.457,0,1,1,.914,0c.016.532.017,1.065,0,1.6a.411.411,0,0,1-.47.417.422.422,0,0,1-.441-.45C1101.8,507.674,1101.8,507.4,1101.8,507.129Z" transform="translate(-159.203 -239.702)" fill="#2ad6eb" stroke="#2ad6eb" stroke-width="0.3"/>
      <path id="Path_26631" data-name="Path 26631" d="M1002.94,507.166c0-.26-.011-.521,0-.78a.438.438,0,0,1,.439-.461.431.431,0,0,1,.483.452c.02.519.02,1.04,0,1.56a.433.433,0,0,1-.477.46.442.442,0,0,1-.45-.487C1002.932,507.661,1002.94,507.413,1002.94,507.166Z" transform="translate(-67.703 -239.7)" fill="#2ad6eb" stroke="#2ad6eb" stroke-width="0.3"/>
      <path id="Path_26632" data-name="Path 26632" d="M1201.311,507.18c0,.248.007.5,0,.744a.442.442,0,0,1-.458.48.435.435,0,0,1-.476-.463c-.018-.508-.016-1.018,0-1.526a.443.443,0,0,1,.46-.482.449.449,0,0,1,.476.5C1201.316,506.683,1201.311,506.932,1201.311,507.18Z" transform="translate(-250.423 -239.709)" fill="#2ad6eb" stroke="#2ad6eb" stroke-width="0.3"/>
    </g>
  </g>
</svg>
