<?xml version="1.0" encoding="iso-8859-1"?>
<!-- Generator: Adobe Illustrator 19.0.0, SVG Export Plug-In . SVG Version: 6.00 Build 0)  -->
<svg version="1.1" id="Layer_1" xmlns="http://www.w3.org/2000/svg" xmlns:xlink="http://www.w3.org/1999/xlink" x="0px" y="0px"
	 viewBox="0 0 490 490" style="enable-background:new 0 0 490 490;" xml:space="preserve">
<g>
	<g>
		<g>
			<path d="M176.264,299.866c1.765,3.169,5.108,5.134,8.736,5.134h48.47l-13.369,93.586c-0.672,4.702,2.056,9.227,6.529,10.829
				c1.106,0.397,2.244,0.586,3.368,0.586c3.415,0,6.695-1.756,8.55-4.811l85-140c1.875-3.087,1.938-6.946,0.167-10.094
				C321.943,251.948,318.612,250,315,250h-55v-60c0-4.469-2.965-8.395-7.264-9.618c-4.3-1.226-8.886,0.553-11.239,4.354l-65,105
				C174.588,292.821,174.499,296.697,176.264,299.866z M240,225.152V260c0,5.522,4.478,10,10,10h47.229l-50.419,83.045l8.09-56.631
				c0.41-2.869-0.446-5.777-2.345-7.966c-1.9-2.19-4.657-3.448-7.555-3.448h-42.049L240,225.152z"/>
			<rect x="145" y="135" width="20" height="20"/>
			<rect x="325" y="135" width="20" height="20"/>
			<rect x="145" y="435" width="20" height="20"/>
			<rect x="325" y="435" width="20" height="20"/>
			<path d="M360,100h-25V60c0-5.522-4.478-10-10-10h-25V10c0-5.522-4.478-10-10-10h-90c-5.522,0-10,4.478-10,10v40h-25
				c-5.522,0-10,4.478-10,10v40h-25c-11.028,0-20,8.972-20,20v350c0,11.028,8.972,20,20,20h230c11.028,0,20-8.972,20-20V120
				C380,108.972,371.028,100,360,100z M210,20h70v30h-70V20z M175,70h140v30H175V70z M360,190h-65v20h65v150h-65v20h65v90H130v-90
				h65v-20h-65V210h65v-20h-65v-70h230V190z"/>
		</g>
	</g>
</g>
</svg>
