<svg xmlns="http://www.w3.org/2000/svg" xmlns:xlink="http://www.w3.org/1999/xlink" width="89" height="89" viewBox="0 0 89 89">
  <defs>
    <filter id="Rectangle_1209" x="0" y="0" width="89" height="89" filterUnits="userSpaceOnUse">
      <feOffset dy="3" input="SourceAlpha"/>
      <feGaussianBlur stdDeviation="3" result="blur"/>
      <feFlood flood-color="#f55d5a" flood-opacity="0.502"/>
      <feComposite operator="in" in2="blur"/>
      <feComposite in="SourceGraphic"/>
    </filter>
  </defs>
  <g id="on_off" transform="translate(9 6.253)">
    <g id="Group_4437" data-name="Group 4437">
      <g transform="matrix(1, 0, 0, 1, -9, -6.25)" filter="url(#Rectangle_1209)">
        <rect id="Rectangle_1209-2" data-name="Rectangle 1209" width="71" height="71" rx="35.5" transform="translate(9 6)" fill="#f55d5a"/>
      </g>
    </g>
    <g id="power" transform="translate(18 18)">
      <path id="Path_25234" data-name="Path 25234" d="M474.8,277.107A17.678,17.678,0,0,1,457.4,263.7a19.759,19.759,0,0,1-.467-4.608,16.7,16.7,0,0,1,1.544-7.053A17.3,17.3,0,0,1,462,246.924a1.39,1.39,0,1,1,2,1.925,14.776,14.776,0,0,0-4.148,8.183,15.009,15.009,0,0,0,12.657,17.212,14.964,14.964,0,0,0,16.782-11.67,14.691,14.691,0,0,0-3.9-13.625,1.651,1.651,0,0,1-.534-.982,1.386,1.386,0,0,1,.773-1.4,1.3,1.3,0,0,1,1.59.289,29.743,29.743,0,0,1,2.252,2.765,16.99,16.99,0,0,1,2.9,8.5,17.745,17.745,0,0,1-12.919,18.4A13.785,13.785,0,0,1,474.8,277.107Z" transform="translate(-456.929 -241.63)" fill="#fff" stroke="#fff" stroke-width="0.5"/>
      <path id="Path_25235" data-name="Path 25235" d="M694.436,187.121q0,4.041,0,8.082a1.391,1.391,0,0,1-2.774.208c-.006-.081,0-.162,0-.243q0-8.047,0-16.094a1.406,1.406,0,0,1,.79-1.389,1.379,1.379,0,0,1,1.987,1.285c.009,2.22,0,4.44,0,6.66Q694.436,186.376,694.436,187.121Z" transform="translate(-675.329 -177.539)" fill="#fff" stroke="#fff" stroke-width="0.5"/>
    </g>
  </g>
</svg>
