<svg id="Alarm-tab" xmlns="http://www.w3.org/2000/svg" width="19.994" height="20" viewBox="0 0 19.994 20">
  <path id="Path_25209" data-name="Path 25209" d="M-1459.488,950.659a.583.583,0,0,1,.337.606c-.008.513,0,1.026,0,1.538,0,.3-.121.466-.355.519a.414.414,0,0,1-.516-.33,3.6,3.6,0,0,1-.027-.536c0-.4.005-.795,0-1.192a.58.58,0,0,1,.337-.606Z" transform="translate(1469.601 -950.659)" fill="#373737"/>
  <path id="Path_25210" data-name="Path 25210" d="M-1603.305,1031.527v-.234q0-2.9,0-5.806a6.533,6.533,0,0,1,.461-2.535,6.228,6.228,0,0,1,2.443-2.925,6.313,6.313,0,0,1,4.139-.986,6.257,6.257,0,0,1,3.53,1.508,6.045,6.045,0,0,1,2.048,3.413,7.3,7.3,0,0,1,.147,1.429c.016,1.967.007,3.935.007,5.9v.239a1.93,1.93,0,0,1,1.148.412,1.78,1.78,0,0,1,.673,1.431c0,.4.005.807,0,1.211-.005.361-.178.526-.547.526h-15.322c-.369,0-.543-.165-.547-.526,0-.442-.019-.885.011-1.326a1.77,1.77,0,0,1,1.679-1.718Zm11.863,0v-.239c0-1.929,0-3.859,0-5.788a6.941,6.941,0,0,0-.068-1.015,5.193,5.193,0,0,0-2.048-3.446,5.381,5.381,0,0,0-3.691-1.121,5.307,5.307,0,0,0-3.178,1.244,5.289,5.289,0,0,0-1.962,4.247q0,2.952,0,5.9v.214Zm-12.762,2.683h14.582c0-.281,0-.549,0-.817a1.428,1.428,0,0,0-.01-.211.935.935,0,0,0-1.025-.755h-12.516a1.7,1.7,0,0,0-.234.013.872.872,0,0,0-.79.76C-1604.225,1033.529-1604.2,1033.862-1604.2,1034.208Z" transform="translate(1606.915 -1015.113)" fill="#373737"/>
  <path id="Path_25211" data-name="Path 25211" d="M-1636.932,1046.559a1.106,1.106,0,0,1-.2-.062q-.85-.419-1.7-.848a.468.468,0,0,1-.294-.49.428.428,0,0,1,.384-.371.6.6,0,0,1,.294.057q.861.419,1.714.854a.437.437,0,0,1,.259.535A.437.437,0,0,1-1636.932,1046.559Z" transform="translate(1639.125 -1039.766)" fill="#373737"/>
  <path id="Path_25212" data-name="Path 25212" d="M-1314.293,1046.407a.446.446,0,0,1-.45-.277.432.432,0,0,1,.126-.5.569.569,0,0,1,.11-.077c.576-.289,1.151-.581,1.731-.864a.435.435,0,0,1,.571.1.415.415,0,0,1,.02.53.74.74,0,0,1-.238.186q-.819.418-1.644.823A1.614,1.614,0,0,1-1314.293,1046.407Z" transform="translate(1332.094 -1039.613)" fill="#373737"/>
  <path id="Path_25213" data-name="Path 25213" d="M-1568.6,969.776a.465.465,0,0,1-.232.46.409.409,0,0,1-.437-.011.785.785,0,0,1-.136-.106q-.627-.624-1.25-1.25a.456.456,0,0,1-.145-.5.376.376,0,0,1,.368-.286.662.662,0,0,1,.392.15c.438.413.86.843,1.279,1.275A1.13,1.13,0,0,1-1568.6,969.776Z" transform="translate(1574.469 -967.166)" fill="#373737"/>
  <path id="Path_25214" data-name="Path 25214" d="M-1374.084,970.064a.453.453,0,0,1-.433-.226.4.4,0,0,1,.006-.437,1.8,1.8,0,0,1,.226-.26q.562-.566,1.128-1.128a.469.469,0,0,1,.5-.151.385.385,0,0,1,.29.346.5.5,0,0,1-.087.336c-.465.486-.943.958-1.425,1.427A.553.553,0,0,1-1374.084,970.064Z" transform="translate(1388.697 -966.938)" fill="#373737"/>
  <path id="Path_25215" data-name="Path 25215" d="M-1536.627,1057.5a4.469,4.469,0,0,1,3.843-4.226c.177-.023.356-.036.535-.042a.449.449,0,0,1,.529.427c.009.265-.189.424-.5.468a6.322,6.322,0,0,0-1.216.24,3.548,3.548,0,0,0-2.3,3.169,1.363,1.363,0,0,1-.03.266.421.421,0,0,1-.449.336.431.431,0,0,1-.411-.407C-1536.632,1057.65-1536.627,1057.572-1536.627,1057.5Z" transform="translate(1542.116 -1047.736)" fill="#373737"/>
</svg>
