<svg xmlns="http://www.w3.org/2000/svg" width="140.022" height="36" viewBox="0 0 140.022 36">
  <g id="Group_1" data-name="Group 1" transform="translate(-42.63 -355.201)">
    <g id="Layer_x0020_1" transform="translate(42.63 355.201)">
      <path id="Path_25239" data-name="Path 25239" d="M9566,8728.73v2.973c0,.258.32.731.548.731h4.2c.278,0,.441-.308.525-.515.1-.269.083.05.083-.217V8730c0-.134-.043-.176-.186-.176h-2.436c-.328,0-.166.649-.112.846h1.578c0,1.156.03.856-.247.856H9567.4c-.156,0-.248.134-.248-.123v-2.56h3.044c0,.754.073.454.681.382.454-.062.475.01.475-.443a.781.781,0,0,0-.8-.783h-3.765A.763.763,0,0,0,9566,8728.73Z" transform="translate(-9505.804 -8696.435)" fill="#b3b3b3" fill-rule="evenodd"/>
      <path id="Path_25240" data-name="Path 25240" d="M6337.64,8732.435h.918a16.028,16.028,0,0,1,.67-1.764l.134-.351a5.042,5.042,0,0,0,.289-.744c.185.135.113.042.237.373l.392,1c.113.268.186.475.3.744.093.236.186.535.289.741h.846l.753-2.053a1.016,1.016,0,0,1,.073-.165c.124-.3.793-1.99.814-2.217h-.97a3.368,3.368,0,0,0-.258.648l-.341.939c-.01.011-.01.03-.021.041l-.35,1.1c-.238-.062-.2-.175-.372-.609-.093-.226-.175-.443-.278-.69L6340.2,8728h-.855l-.237.669c-.093.249-.2.425-.289.681a13.13,13.13,0,0,0-.506,1.384c-.278-.073-.124-.011-.216-.269l-.939-2.465H6336l.619,1.629c.031.092.063.176.093.27l.547,1.4A4.885,4.885,0,0,1,6337.64,8732.435Z" transform="translate(-6309.123 -8696.435)" fill="#b3b3b3" fill-rule="evenodd"/>
      <path id="Path_25241" data-name="Path 25241" d="M11644.65,8729.939h-2.5v-1.095h2.619c.1.4.113-.153.113.731C11644.887,8729.764,11644.836,8729.939,11644.65,8729.939Zm1.66,2.5h-1.434c-.113-.009-.123-.04-.248-.164l-.318-.29c-.031-.029-.094-.092-.094-.092l-.062-.053c-.062-.061-.092-.081-.164-.143-1.062-1-.693-.838-1.836-.838v1.579H11641v-4.251c0-.143.041-.184.186-.184h4.074a.712.712,0,0,1,.672.669c0,1.394.2,1.786-.527,2.1a1.838,1.838,0,0,1-.875.091l1.381,1.168c.3.247.383.174.443.411Z" transform="translate(-11559.397 -8696.435)" fill="#b3b3b3" fill-rule="evenodd"/>
      <path id="Path_25242" data-name="Path 25242" d="M12336.947,8728.845c0,2.063-.031,1.765,3.9,1.765v.969c-.412-.225-2.845.073-2.981-.072-.091-.082-.062-.289-.062-.475l-.5.053c-.125.031-.083.02-.187.051-.318.082-.278-.071-.278.631a.8.8,0,0,0,.34.577c.1.073.072.092.094.092h4a.953.953,0,0,0,.411-.257,2.94,2.94,0,0,0,0-2.22c-.1-.123-.091-.091-.217-.153-.216-.1-.092-.1-.257-.1h-3.22v-.857h2.8c0,.619,0,.5.454.4.413-.1.258,0,.578-.215,0-.589-.2-1.031-.795-1.031h-3.281A.789.789,0,0,0,12336.947,8728.845Z" transform="translate(-12248.053 -8696.435)" fill="#b3b3b3" fill-rule="evenodd"/>
      <path id="Path_25243" data-name="Path 25243" d="M5698.639,8729.217c0,1.63.361,1.393,2.734,1.393h.681c.567-.01.475-.1.475.918H5699.5c0-.672-.01-.548-1.042-.311a1.481,1.481,0,0,0,.052.619l.082.166c.073.164.249.433.474.433h3.9c.176,0,.454-.288.516-.454.092-.309.237-1.795-.248-2.124l-.453-.154h-3.1v-.857h2.795c0,.671.042.485.505.392.444-.092.536-.061.536-.453a.779.779,0,0,0-.793-.783h-3.28C5698.753,8728,5698.639,8728.535,5698.639,8729.217Z" transform="translate(-5678.147 -8696.435)" fill="#b3b3b3" fill-rule="evenodd"/>
      <path id="Path_25244" data-name="Path 25244" d="M14549.436,8731.527c-.8,0-1.28.113-1.28-.184v-2.312c0-.145.041-.187.185-.187a7.11,7.11,0,0,1,2.426.2c.607.371.5.917.5,1.506l-.36.67A2.553,2.553,0,0,1,14549.436,8731.527Zm-2.435.907h3.651a2.16,2.16,0,0,0,1.722-1.433l.051-.249a1.393,1.393,0,0,0,.113-.69.7.7,0,0,0-.03-.216,2.116,2.116,0,0,0-2.165-1.847H14547Z" transform="translate(-14435.424 -8696.435)" fill="#b3b3b3" fill-rule="evenodd"/>
      <path id="Path_25245" data-name="Path 25245" d="M8102.981,8729.217a14.546,14.546,0,0,0,.114,2.807c.062.143.33.411.5.411h3.775a.694.694,0,0,0,.443-.341,2.024,2.024,0,0,0,.1-1.3c-.27,0-.857-.2-.971-.164-.36.092.134.8-.31.9-.311.062-1.981,0-2.435,0a11.626,11.626,0,0,1,0-2.683h2.073c.629-.011.547-.1.547.8,1.155,0,1.155-.094,1.155-.609a2.176,2.176,0,0,0-.2-.723.736.736,0,0,0-.66-.309h-3.342C8103.1,8728,8102.981,8728.535,8102.981,8729.217Z" transform="translate(-8057.867 -8696.435)" fill="#b3b3b3" fill-rule="evenodd"/>
      <path id="Path_25246" data-name="Path 25246" d="M10315,8732.435h4.746c0-1.165.278-.907-2.745-.907a4.846,4.846,0,0,0-.546.01c-.371.021-.3.206-.3-.99h1.889c.246,0,.175-.185.175-.67,0-.135-.042-.175-.175-.175h-1.889v-.919h3.342c.259,0,.187-.227.187-.783H10315Z" transform="translate(-10247.077 -8696.435)" fill="#b3b3b3" fill-rule="evenodd"/>
      <path id="Path_25247" data-name="Path 25247" d="M8807.42,8730.357c0,.289-.2.351.205.361h.95v-1.64c0-.062-.145-.248.236-.248h2.858v1.888h1.154v-4.436h-1.154v1.7H8808.7c-.227,0-.153-.093-.144-.247.1-1.744.164-1.455-1.135-1.455Z" transform="translate(-8755.002 -8694.719)" fill="#b3b3b3" fill-rule="evenodd"/>
      <path id="Path_25248" data-name="Path 25248" d="M10894.919,8728.969c.165.114.153.187.246.361l.672,1.279h-1.765l.639-1.176C10894.825,8729.246,10894.907,8729.186,10894.919,8728.969Zm-2.92,3.466h1.155c.021-.247.33-.907.558-.907h2.486c.154,0,.145.041.216.145.042.051.021.051.061.123l.332.64h1.279l-.609-1.091a2.678,2.678,0,0,1-.154-.28l-1.424-2.454a4.487,4.487,0,0,1-.311-.609h-1.154l-1.517,2.733c-.061.1-.083.144-.155.269l-.464.814A1.739,1.739,0,0,0,10892,8732.435Z" transform="translate(-10818.124 -8696.435)" fill="#b3b3b3" fill-rule="evenodd"/>
      <path id="Path_25249" data-name="Path 25249" d="M13899,8728.845h2v3.59h1.154v-3.59h2.011V8728H13899Z" transform="translate(-13794.106 -8696.435)" fill="#b3b3b3" fill-rule="evenodd"/>
      <path id="Path_25250" data-name="Path 25250" d="M7468,8728.845h2v3.59h1.154c0-4.177-.278-3.59.919-3.59h1.094c.041-.185.205-.845-.125-.845H7468Z" transform="translate(-7429.445 -8696.435)" fill="#b3b3b3" fill-rule="evenodd"/>
      <path id="Path_25251" data-name="Path 25251" d="M13398,8732.435h4.5v-.856a23.425,23.425,0,0,0-3.105-.041c-.153.01-.236.082-.236-.133V8728H13398Z" transform="translate(-13298.274 -8696.435)" fill="#b3b3b3" fill-rule="evenodd"/>
      <path id="Path_25252" data-name="Path 25252" d="M7220,8732.435h1.156V8728.3a.813.813,0,0,0-.063-.3H7220Z" transform="translate(-7184.004 -8696.435)" fill="#b3b3b3" fill-rule="evenodd"/>
      <path id="Path_25253" data-name="Path 25253" d="M8928.093,5668h4.858l12.6,17.061,11.739-17.01h4.826v28.677H8956.9v-20.054l-12.182,16.589-11.544-16.784v20.25H8928Z" transform="translate(-8874.387 -5668)" fill="#2c313b" fill-rule="evenodd"/>
      <path id="Path_25254" data-name="Path 25254" d="M12370.219,5694.468h-16.454v-18.816h16.66v5.581l6.4,2.13V5671h-25.549a3.71,3.71,0,0,0-3.28,3.733c0,3.374.02,20.508.02,20.508s-.051,4.322,3.9,4.322h24.478l.631-12.42h-4.53Z" transform="translate(-12259.105 -5670.97)" fill="#2c313b" fill-rule="evenodd"/>
      <path id="Path_25257" data-name="Path 25257" d="M5728,5696.676h6.189l.082-10.831h6.623l10.171,10.841h8.273l-11.243-10.708,6.1-.268,2.259-2.8.2-12.245-2.878-2.671h-25.561v11.986Zm7.376-23.467v8.417h15.193a1.181,1.181,0,0,0,1.4-1.269c0-1.485-.134-6.457-.134-6.457s.052-.64-1.258-.64S5735.376,5673.209,5735.376,5673.209Z" transform="translate(-5707.395 -5668)" fill="#2c313b" fill-rule="evenodd"/>
      <g id="logo" transform="translate(0 0.214)">
        <path id="Union_3" data-name="Union 3" d="M126.907,16.4h-5.361l.6-16.4,17.877,17.518-17.71,17.838ZM0,17.613,17.869,0,12.221,20.741H16.4l1.628,14.614Z" transform="translate(0)" fill="#22bba7"/>
      </g>
    </g>
  </g>
</svg>
