<svg xmlns="http://www.w3.org/2000/svg" width="18.208" height="20" viewBox="0 0 18.208 20">
  <g id="Profile" transform="translate(707.12 -520.8)">
    <path id="Path_25228" data-name="Path 25228" d="M-629.72,520.8a11.618,11.618,0,0,1,1.581.391,5.181,5.181,0,0,1,3.257,3.588,5.237,5.237,0,0,1-1.69,5.615,5.12,5.12,0,0,1-4.357,1.261,5.225,5.225,0,0,1-4.189-3.208,5.219,5.219,0,0,1,.521-5.3,5.293,5.293,0,0,1,3.431-2.242c.21-.043.424-.07.636-.1Zm-.411,1.215a4.263,4.263,0,0,0-4.244,4.256,4.263,4.263,0,0,0,4.256,4.244,4.264,4.264,0,0,0,4.244-4.255A4.264,4.264,0,0,0-630.131,522.015Z" transform="translate(-67.891)" fill="#373737"/>
    <path id="Path_25229" data-name="Path 25229" d="M-698.024,769.4h-8.337c-.562,0-.777-.231-.759-.795a7.848,7.848,0,0,1,1.76-4.809,7.622,7.622,0,0,1,5.049-2.886,16.51,16.51,0,0,1,2-.088c.714-.008,1.43-.005,2.143.036a7.24,7.24,0,0,1,3.181.965,7.976,7.976,0,0,1,3.077,3.107,7.606,7.606,0,0,1,.917,2.763c.042.327.065.657.08.987a.618.618,0,0,1-.692.719Zm7.86-1.225a.758.758,0,0,0,0-.089c-.019-.147-.034-.295-.06-.44a6.67,6.67,0,0,0-1.963-3.726,6.279,6.279,0,0,0-4.071-1.847c-1.068-.064-2.143-.045-3.215-.027a6.181,6.181,0,0,0-2.9.787,6.689,6.689,0,0,0-3.053,3.435,6.356,6.356,0,0,0-.452,1.906Z" transform="translate(0 -228.599)" fill="#373737"/>
  </g>
</svg>
