<svg xmlns="http://www.w3.org/2000/svg" width="60" height="60" viewBox="0 0 60 60">
  <g id="electricity_usage" transform="translate(0 0)">
    <rect id="Rectangle_1195" data-name="Rectangle 1195" width="60" height="60" rx="30" transform="translate(0 0)" fill="#ffeac8"/>
    <g id="Group_5689" data-name="Group 5689" transform="translate(-1745.8 -320.1)">
      <path id="Path_26643" data-name="Path 26643" d="M1760.8,349.615c.077-.576.136-1.155.233-1.728a15.221,15.221,0,0,1,4.214-8.228,1.211,1.211,0,1,1,1.745,1.67,12.446,12.446,0,0,0-2.946,4.628,12.886,12.886,0,0,0,2.3,13.04c.215.266.462.505.691.761a1.211,1.211,0,0,1-.012,1.735,1.2,1.2,0,0,1-1.733-.065,15.223,15.223,0,0,1-4.248-8.211c-.1-.592-.162-1.191-.242-1.787Z" transform="translate(0 -0.105)" fill="#febf55"/>
      <path id="Path_26644" data-name="Path 26644" d="M1888.7,405.589a6.29,6.29,0,1,1-6.286,6.293A6.307,6.307,0,0,1,1888.7,405.589Zm0,2.42a3.87,3.87,0,1,0,3.869,3.864A3.879,3.879,0,0,0,1888.7,408.009Z" transform="translate(-112.419 -61.463)" fill="#febf55"/>
      <path id="Path_26645" data-name="Path 26645" d="M2089.7,350.983a15.086,15.086,0,0,1-4.459,10.31,1.21,1.21,0,1,1-1.74-1.674,12.5,12.5,0,0,0,3.166-5.25,12.894,12.894,0,0,0-2.895-12.865c-.107-.121-.226-.231-.331-.352a1.208,1.208,0,0,1,.043-1.711,1.167,1.167,0,0,1,1.7.06,23.577,23.577,0,0,1,1.924,2.361A15.619,15.619,0,0,1,2089.7,350.983Z" transform="translate(-297.938)" fill="#febf55"/>
      <path id="Path_26646" data-name="Path 26646" d="M1821.614,390.323a10.868,10.868,0,0,1,3.16-7.675,1.2,1.2,0,0,1,1.688-.076,1.173,1.173,0,0,1,.082,1.7,9.228,9.228,0,0,0-1.791,2.633,8.293,8.293,0,0,0,.4,7.58,14.521,14.521,0,0,0,1.373,1.829,1.256,1.256,0,0,1,.328,1,1.209,1.209,0,0,1-2.069.676,10.835,10.835,0,0,1-3.168-7.671Z" transform="translate(-56.217 -39.901)" fill="#febf55"/>
      <path id="Path_26647" data-name="Path 26647" d="M2045.294,390.549a10.726,10.726,0,0,1-3.147,7.423,1.207,1.207,0,0,1-1.711.074,1.172,1.172,0,0,1-.076-1.683,9.425,9.425,0,0,0,1.807-2.658,8.417,8.417,0,0,0,0-6.777,8.326,8.326,0,0,0-1.71-2.541,1.226,1.226,0,0,1-.391-1.121,1.209,1.209,0,0,1,2.052-.639,10.809,10.809,0,0,1,1.9,2.563A11.155,11.155,0,0,1,2045.294,390.549Z" transform="translate(-258.131 -39.895)" fill="#febf55"/>
    </g>
  </g>
</svg>
