<svg id="electricity_usage" xmlns="http://www.w3.org/2000/svg" width="50" height="50" viewBox="0 0 50 50">
  <rect id="Rectangle_1195" data-name="Rectangle 1195" width="50" height="50" rx="25" fill="#e0f9fc"/>
  <g id="Usager_Bill" transform="translate(1179.262 -715.529)">
    <path id="Path_25197" data-name="Path 25197" d="M-1142.933,741.643a.672.672,0,0,1-.41.361c-.817.32-1.63.652-2.447.971a.254.254,0,0,0-.192.282q.009,2.921,0,5.842c0,.477-.134.612-.605.612h-18.05c-.489,0-.622-.133-.622-.62q0-5.493-.005-10.987a.712.712,0,0,1,.559-.8q5.829-2.331,11.664-4.647l5.074-2.021c.52-.207.667-.144.877.383l4.113,10.331a.546.546,0,0,0,.042.073Zm-21.438,7.178h17.5V738.334h-17.5Zm1.8-11.423.017.047c.814,0,1.627,0,2.441,0a.417.417,0,0,0,.192-.067,3.088,3.088,0,0,1,.361-.227q2.787-1.118,5.578-2.225c1.092-.434,2.186-.864,3.277-1.3a.5.5,0,0,1,.62.162,2.558,2.558,0,0,0,2.157.929.5.5,0,0,1,.547.336q.442,1.112.9,2.219c.028.068.077.163.133.177.315.076.376.3.375.577,0,1.272,0,2.543,0,3.815v.271l2.039-.812-3.891-9.769Zm15.207.045c-.228-.574-.45-1.116-.657-1.663a.257.257,0,0,0-.267-.193,3.322,3.322,0,0,1-2.187-.948.244.244,0,0,0-.3-.052q-3.444,1.377-6.891,2.748c-.055.022-.106.054-.211.108Z" fill="#00cfe8" stroke="#00cfe8" stroke-width="0.3"/>
    <path id="Path_25198" data-name="Path 25198" d="M-1131.764,865.9h-5.035c-.08,0-.16,0-.24,0-.367-.011-.463-.078-.59-.429a2.6,2.6,0,0,0-1.344-1.5,2.389,2.389,0,0,0-.22-.092c-.407-.152-.476-.232-.478-.669q-.009-1.689,0-3.378c0-.437.075-.522.476-.672a2.552,2.552,0,0,0,1.542-1.53c.168-.431.236-.488.7-.488q5.166,0,10.332,0c.478,0,.543.056.716.5a2.536,2.536,0,0,0,1.508,1.507c.439.169.5.243.5.719q0,1.646,0,3.291c0,.49-.056.56-.509.735a2.527,2.527,0,0,0-1.5,1.492c-.191.485-.22.517-.742.517Q-1129.2,865.9-1131.764,865.9Zm-.024-7.889h-4.882c-.111,0-.2,0-.259.132a3.357,3.357,0,0,1-1.727,1.733.214.214,0,0,0-.143.231q.007,1.406,0,2.811a.231.231,0,0,0,.157.246,3.375,3.375,0,0,1,1.7,1.7.245.245,0,0,0,.263.164q4.893-.005,9.785,0a.258.258,0,0,0,.273-.18,3.344,3.344,0,0,1,1.672-1.673.27.27,0,0,0,.18-.294c-.006-.908-.008-1.816,0-2.724a.285.285,0,0,0-.193-.31,3.316,3.316,0,0,1-1.657-1.658.272.272,0,0,0-.292-.183C-1128.534,858.009-1130.161,858.007-1131.788,858.007Z" transform="translate(-23.834 -117.934)" fill="#00cfe8" stroke="#00cfe8" stroke-width="0.3"/>
    <path id="Path_25199" data-name="Path 25199" d="M-1057.481,885.306a2.63,2.63,0,0,1-2.621,2.64,2.634,2.634,0,0,1-2.628-2.613,2.629,2.629,0,0,1,2.611-2.648A2.627,2.627,0,0,1-1057.481,885.306Zm-.878,0a1.76,1.76,0,0,0-1.748-1.747,1.768,1.768,0,0,0-1.748,1.771,1.758,1.758,0,0,0,1.761,1.731A1.75,1.75,0,0,0-1058.359,885.308Z" transform="translate(-95.511 -141.736)" fill="#00cfe8" stroke="#00cfe8" stroke-width="0.3"/>
    <path id="Path_25200" data-name="Path 25200" d="M-1103.68,912.783a.648.648,0,0,1-.658-.642.662.662,0,0,1,.66-.668.665.665,0,0,1,.649.659A.65.65,0,0,1-1103.68,912.783Zm.241-.6v-.1c-.085-.054-.173-.154-.255-.149a.275.275,0,0,0-.187.2.271.271,0,0,0,.185.2C-1103.614,912.334-1103.525,912.237-1103.44,912.185Z" transform="translate(-56.751 -168.554)" fill="#00cfe8" stroke="#00cfe8" stroke-width="0.3"/>
    <path id="Path_25201" data-name="Path 25201" d="M-962.864,912.782a.643.643,0,0,1-.648-.65.655.655,0,0,1,.644-.66.671.671,0,0,1,.665.667A.655.655,0,0,1-962.864,912.782Zm.25-.6v-.1c-.085-.056-.173-.157-.255-.153a.275.275,0,0,0-.188.2.27.27,0,0,0,.184.2C-962.79,912.333-962.7,912.236-962.614,912.184Z" transform="translate(-187.935 -168.553)" fill="#00cfe8" stroke="#00cfe8" stroke-width="0.3"/>
  </g>
</svg>
