<svg xmlns="http://www.w3.org/2000/svg" width="30" height="27.711" viewBox="0 0 30 27.711">
  <g id="Current" transform="translate(0)">
    <path id="Path_25165" data-name="Path 25165" d="M678.079,596.395v-2.517a11.269,11.269,0,0,0,9.478-5.008,10.882,10.882,0,0,0,1.917-7.319,11.332,11.332,0,0,0-22.31-1.692,3.874,3.874,0,0,1,2.049,1.95,3.764,3.764,0,0,1,.346,1.587h-1.782v.85c0,.4.008.807,0,1.21a.462.462,0,1,1-.921-.016c-.006-.661,0-1.322,0-2.007h-2.178q0,.766,0,1.536c0,.155,0,.31,0,.466a.478.478,0,0,1-.465.515.472.472,0,0,1-.458-.518c-.005-.579,0-1.158,0-1.738v-.277H662.01a3.715,3.715,0,0,1,.918-2.5,3.941,3.941,0,0,1,1.474-1.055.526.526,0,0,0,.267-.319,13.83,13.83,0,1,1,15.992,16.568C679.824,596.267,678.965,596.3,678.079,596.395Z" transform="translate(-662.01 -568.684)" fill="#ff4a88"/>
    <path id="Path_25166" data-name="Path 25166" d="M859.672,687.108l3.306-.152-9.159,11.194-.053-.025,2.694-6.794h-3.053c.112-.5.2-.931.3-1.358.6-2.555,1.2-5.107,1.781-7.664.073-.322.188-.424.524-.423,2.069,0,4.137-.02,6.206-.034h.361Z" transform="translate(-841.529 -674.828)" fill="#ff4a88"/>
  </g>
</svg>
