<svg id="electricity_usage" xmlns="http://www.w3.org/2000/svg" width="50" height="50" viewBox="0 0 50 50">
  <rect id="Rectangle_1195" data-name="Rectangle 1195" width="50" height="50" rx="25" fill="#fceaea"/>
  <g id="electricity_usage-2" data-name="electricity_usage" transform="translate(17.005 13.091)">
    <path id="Path_25194" data-name="Path 25194" d="M-1378.253,788.136h.293c1.932,0,3.864,0,5.8,0a1.084,1.084,0,0,1,1.047.54,1.085,1.085,0,0,1-.089,1.175q-4.091,6.648-8.175,13.3a1.076,1.076,0,0,1-1.139.577,1.031,1.031,0,0,1-.841-.9,2.337,2.337,0,0,1,.029-.534q.329-2.815.662-5.63c.088-.744.173-1.488.263-2.262h-.3c-1.9,0-3.8,0-5.7,0a1.086,1.086,0,0,1-1.048-.538,1.078,1.078,0,0,1,.088-1.174q4.1-6.657,8.191-13.319a1.052,1.052,0,0,1,1.241-.532,1.041,1.041,0,0,1,.735,1.13q-.522,3.985-1.047,7.969C-1378.248,787.993-1378.248,788.05-1378.253,788.136Zm-.476,9.873.045.019,4.791-7.8h-1.059c-1.475,0-2.95,0-4.425,0a1.049,1.049,0,0,1-1.114-1.165c.111-.905.237-1.808.356-2.713q.111-.844.219-1.689l-.045-.019-4.713,7.666h.327q2.506,0,5.012,0a1.035,1.035,0,0,1,1.1.778,1.845,1.845,0,0,1,.01.606C-1378.385,795.131-1378.558,796.569-1378.729,798.009Z" transform="translate(1387.585 -778.79)" fill="#ea5c5d"/>
  </g>
</svg>
