<svg id="Load" xmlns="http://www.w3.org/2000/svg" width="30" height="27.196" viewBox="0 0 30 27.196">
  <path id="Path_25167" data-name="Path 25167" d="M561.93,815.641a6.35,6.35,0,0,1-1.634,12.564,6.35,6.35,0,0,1-.477-12.634c0-1.638,0-3.284,0-4.931a3.964,3.964,0,0,0-.1-.839,3.212,3.212,0,0,0-5.392-1.685,3.8,3.8,0,0,0-1.284,2.926c0,3.615.039,7.232-.019,10.846a4.963,4.963,0,0,1-3.091,4.841,5.334,5.334,0,0,1-5.849-.836,5.171,5.171,0,0,1-1.743-4.1c-.036-1.9-.021-3.8,0-5.7a.922.922,0,0,0-.669-1.008,6.673,6.673,0,0,1-4.466-4.919,13.587,13.587,0,0,1-.135-3.478c.081-1.268.8-1.792,2.432-2.014,0-.8,0-1.613,0-2.425,0-.767.4-1.238,1.057-1.237s1.059.48,1.065,1.242c.006.8,0,1.6,0,2.435h3.032c0-.662,0-1.307,0-1.952,0-.233-.008-.468.015-.7a1.066,1.066,0,0,1,2.132.074c.014.848,0,1.7,0,2.585.233.039.441.072.648.109a2.016,2.016,0,0,1,1.789,1.966,10.649,10.649,0,0,1-.254,3.818,6.467,6.467,0,0,1-3.807,4.3,1.128,1.128,0,0,0-.769,1.219c.033,1.882,0,3.765.013,5.648a3.2,3.2,0,0,0,3.088,3.331,3.3,3.3,0,0,0,3.426-3.191c.059-2.6.019-5.2.029-7.8.005-1.249-.037-2.5.055-3.747a5.456,5.456,0,0,1,10.9.211C561.93,812.25,561.93,813.931,561.93,815.641Zm-1.283,11.067a4.835,4.835,0,1,0-4.825-4.833A4.843,4.843,0,0,0,560.647,826.708Z" transform="translate(-537.019 -801.015)" fill="#6fce63"/>
  <path id="Path_25168" data-name="Path 25168" d="M757.891,979.434a1.223,1.223,0,0,0-.167-.051c-1.132-.1-1.143-.1-1.046-1.228.078-.894.191-1.785.282-2.678a.582.582,0,0,1,.655-.591c.532,0,1.065-.011,1.6,0,.442.01.591.209.466.65-.2.7-.423,1.394-.673,2.205.405,0,.744-.023,1.077.01a.615.615,0,0,1,.446.225.574.574,0,0,1-.107.486q-1.442,1.816-2.921,3.6c-.076.093-.241.114-.364.168-.025-.145-.105-.308-.065-.431C757.327,981.017,757.609,980.239,757.891,979.434Z" transform="translate(-734.679 -957.496)" fill="#6fce63"/>
</svg>
