<svg xmlns="http://www.w3.org/2000/svg" width="30" height="26.667" viewBox="0 0 30 26.667">
  <g id="voltage" transform="translate(0)">
    <path id="Path_25163" data-name="Path 25163" d="M1025.182,569.975a8.4,8.4,0,0,1-.435,1.355,4.255,4.255,0,0,1-4.052,2.425q-10.515.013-21.031,0a4.278,4.278,0,0,1-4.389-3.409,4.045,4.045,0,0,1,.57-3.021q4.7-8.075,9.383-16.154.513-.883,1.025-1.765a4.5,4.5,0,0,1,7.861,0q3.664,6.314,7.33,12.626c.939,1.618,1.869,3.241,2.823,4.851a6.96,6.96,0,0,1,.916,2.193Zm-15.021,2.1q5.213,0,10.426,0a2.83,2.83,0,0,0,1.875-.584,2.451,2.451,0,0,0,.562-3.274q-1.987-3.435-3.984-6.864-3.231-5.564-6.459-11.13a2.719,2.719,0,0,0-1.53-1.316,2.687,2.687,0,0,0-3.258,1.306q-2.791,4.8-5.579,9.609-2.434,4.192-4.869,8.383a2.391,2.391,0,0,0-.127,2.441,2.629,2.629,0,0,0,2.545,1.43Q1004.962,572.069,1010.161,572.076Z" transform="translate(-995.182 -547.097)" fill="#ffb300"/>
    <path id="Path_25164" data-name="Path 25164" d="M1121.585,643.783h.272c.989,0,1.977,0,2.966,0a1.37,1.37,0,0,1,.405.043.685.685,0,0,1,.33,1.049q-.863,1.593-1.733,3.181l-2.247,4.121a.774.774,0,0,1-.543.475.689.689,0,0,1-.817-.763c0-1.239,0-2.479,0-3.718v-.289h-.272q-1.471,0-2.943,0a2.289,2.289,0,0,1-.318-.017.666.666,0,0,1-.532-.868,1.744,1.744,0,0,1,.125-.268q1.973-3.621,3.947-7.242a.779.779,0,0,1,.544-.476.69.69,0,0,1,.817.763c0,1.24,0,2.479,0,3.718Zm-3.636,2.735h.306c.767,0,1.536.02,2.3-.006.745-.025,1.073.213,1.033,1.032-.027.557-.005,1.116-.005,1.674l.043.011,2.223-4.079h-.293c-.844,0-1.687,0-2.531,0a.707.707,0,0,1-.811-.808c0-.57,0-1.14,0-1.71,0-.062-.008-.124-.016-.241Z" transform="translate(-1105.902 -631.459)" fill="#ffb300"/>
  </g>
</svg>
