<?xml version="1.0" encoding="iso-8859-1"?>
<!-- Generator: Adobe Illustrator 19.0.0, SVG Export Plug-In . SVG Version: 6.00 Build 0)  -->
<svg version="1.1" id="Layer_1" xmlns="http://www.w3.org/2000/svg" xmlns:xlink="http://www.w3.org/1999/xlink" x="0px" y="0px"
	 viewBox="0 0 512 512" style="enable-background:new 0 0 512 512;" xml:space="preserve">
<g>
	<g>
		<path d="M437.025,74.976C388.676,26.627,324.386,0,256,0S123.324,26.627,74.976,74.976S0,187.614,0,256
			s26.627,132.676,74.976,181.024S187.614,512,256,512s132.676-26.627,181.025-74.976C485.373,388.676,512,324.386,512,256
			S485.373,123.324,437.025,74.976z M425.828,425.828C380.469,471.185,320.156,496.165,256,496.165
			c-64.157,0-124.47-24.98-169.828-70.337C40.814,380.471,15.835,320.157,15.835,256s24.98-124.47,70.337-169.828
			S191.843,15.835,256,15.835c64.156,0,124.469,24.98,169.828,70.337c45.358,45.358,70.337,105.67,70.337,169.828
			S471.186,380.47,425.828,425.828z"/>
	</g>
</g>
<g>
	<g>
		<path d="M256,42.227C138.125,42.227,42.227,138.125,42.227,256S138.125,469.773,256,469.773S469.773,373.875,469.773,256
			S373.875,42.227,256,42.227z M377.723,350.69l-11.198,11.196l31.665,31.665c-34.298,35.441-81.678,58.134-134.273,60.214v-44.694
			h-15.835v44.694c-52.595-2.08-99.976-24.773-134.272-60.214l31.664-31.664l-11.196-11.196l-31.042,31.042
			c-26.642-32.312-43.237-73.191-45.002-117.816h44.694v-15.835H58.234c1.765-44.625,18.36-85.504,45.001-117.815l31.042,31.042
			l11.196-11.196l-31.664-31.664c34.297-35.442,81.678-58.135,134.273-60.215v44.694h15.835V58.234
			c52.595,2.08,99.975,24.773,134.272,60.214l-31.665,31.665l11.197,11.196l31.042-31.042
			c26.641,32.311,43.236,73.19,45.001,117.815h-44.693v15.835h44.694c-1.765,44.625-18.36,85.503-45.001,117.815L377.723,350.69z"/>
	</g>
</g>
<g>
	<g>
		<path d="M329.897,269.196h-7.918v-65.979c0-16.008-13.024-29.031-29.031-29.031h-29.031v-18.474h-15.835v18.474h-29.031
			c-16.008,0-29.031,13.023-29.031,29.031v65.979h-7.918c-10.186,0-18.474,8.288-18.474,18.474v34.309h58.062v7.918
			c0,10.186,8.288,18.474,18.474,18.474h31.67c10.186,0,18.474-8.288,18.474-18.474v-7.918h58.062V287.67
			C348.371,277.484,340.083,269.196,329.897,269.196z M205.856,248.082h76.536v-15.835h-76.536v-29.031
			c0-7.277,5.919-13.196,13.196-13.196h73.897c7.277,0,13.196,5.919,13.196,13.196v65.979H205.856V248.082z M274.474,329.897
			c0,1.43-1.209,2.639-2.639,2.639h-31.67c-1.43,0-2.639-1.209-2.639-2.639v-7.918h36.948V329.897z M332.536,306.144H179.464V287.67
			c0-1.43,1.209-2.639,2.639-2.639h147.794c1.43,0,2.639,1.209,2.639,2.639V306.144z"/>
	</g>
</g>
</svg>
