<svg xmlns="http://www.w3.org/2000/svg" width="16.041" height="16.039" viewBox="0 0 16.041 16.039">
  <g id="download" transform="translate(-11 -5)">
    <g id="download-2" data-name="download" transform="translate(1322.009 -842.009)">
      <path id="Path_25195" data-name="Path 25195" d="M-1309.349,1010.16h12.721v-.2q0-3.059,0-6.117a.834.834,0,0,1,.748-.866.828.828,0,0,1,.909.824c.006.622,0,1.244,0,1.866q0,2.333,0,4.666a1.388,1.388,0,0,1-1.488,1.49h-13.064a1.388,1.388,0,0,1-1.488-1.49q0-3.249,0-6.5a.829.829,0,0,1,1.079-.824.834.834,0,0,1,.579.831q0,1.84,0,3.681v2.637Z" transform="translate(0 -148.775)" fill="#ff7467"/>
      <path id="Path_25196" data-name="Path 25196" d="M-1219.682,856.887v-.229q0-4.381,0-8.762a.835.835,0,0,1,.833-.887.831.831,0,0,1,.823.774c0,.069,0,.138,0,.207q0,4.338,0,8.676v.218c.063-.057.105-.092.144-.131.522-.521,1.038-1.047,1.566-1.562a.823.823,0,0,1,1.378.335.822.822,0,0,1-.237.868q-.82.817-1.638,1.637-.69.69-1.381,1.381a.84.84,0,0,1-1.315.007q-1.516-1.514-3.03-3.031a.825.825,0,0,1,.308-1.4.819.819,0,0,1,.868.235q.762.765,1.527,1.528C-1219.793,856.785-1219.751,856.822-1219.682,856.887Z" transform="translate(-84.136)" fill="#ff7467"/>
    </g>
  </g>
</svg>
