<svg xmlns="http://www.w3.org/2000/svg" width="37.625" height="49" viewBox="0 0 37.625 49">
  <g id="Group_5570" data-name="Group 5570" transform="translate(75.375 -9.25)">
    <path id="Path_26520" data-name="Path 26520" d="M-48.7,9.25H-74.095c-.707,0-1.28.573-1.28,1.685v46.44a1.318,1.318,0,0,0,1.28.875H-39.03a1.318,1.318,0,0,0,1.28-.875V20.606c0-.609-.081-.805-.225-.949L-48.156,9.475A.773.773,0,0,0-48.7,9.25Z" transform="translate(0 0)" fill="#f9f9f9"/>
    <path id="Path_26521" data-name="Path 26521" d="M-44.375,9.4V19.769h10.368Z" transform="translate(-3.875 -0.019)" fill="#ededed"/>
    <path id="Path_26522" data-name="Path 26522" d="M-62.623,39.272h0a1.4,1.4,0,0,1-.846-.285,2.1,2.1,0,0,1-.976-1.962c.159-1.424,1.921-2.915,5.237-4.434a58.735,58.735,0,0,0,3.315-9.406c-.873-1.9-1.722-4.366-1.1-5.813A1.678,1.678,0,0,1-56,16.309a4.3,4.3,0,0,1,.889-.15c.441,0,.829.568,1.1.918.258.329.843,1.026-.326,5.952a27.96,27.96,0,0,0,4.452,6.617,17.023,17.023,0,0,1,2.938-.313c1.37,0,2.2.319,2.539.977a1.771,1.771,0,0,1-.341,1.89,2.326,2.326,0,0,1-1.942,1.042c-1.064,0-2.3-.672-3.685-2A41.926,41.926,0,0,0-58.1,33.71a24.827,24.827,0,0,1-2.085,3.72C-61.084,38.686-61.857,39.272-62.623,39.272Zm2.329-4.485c-1.87,1.051-2.632,1.915-2.687,2.4-.009.081-.032.292.377.605C-62.473,37.752-61.712,37.4-60.294,34.787ZM-48.361,30.9c.713.549.887.826,1.354.826a1.319,1.319,0,0,0,1.059-.386,1.385,1.385,0,0,0,.2-.363c-.108-.057-.25-.172-1.028-.172A12.793,12.793,0,0,0-48.361,30.9ZM-54.9,25.141a62.38,62.38,0,0,1-2.34,6.618,43.72,43.72,0,0,1,5.684-1.767A29.951,29.951,0,0,1-54.9,25.141Zm-.531-7.4a2.1,2.1,0,0,0,.084,2.814C-54.514,18.7-55.391,17.724-55.429,17.736Z" transform="translate(-1.365 -0.864)" fill="#ea2134"/>
    <path id="Path_26523" data-name="Path 26523" d="M-39.03,63.125H-74.095a1.28,1.28,0,0,1-1.28-1.28V48.25H-37.75V61.845A1.28,1.28,0,0,1-39.03,63.125Z" transform="translate(0 -4.875)" fill="#ea2134"/>
    <g id="Group_5569" data-name="Group 5569" transform="translate(-67.286 46.808)">
      <path id="Path_26524" data-name="Path 26524" d="M-64.7,60.991h-1.436V52.174H-63.6a3.559,3.559,0,0,1,1.112.179,3.024,3.024,0,0,1,.987.538,2.81,2.81,0,0,1,.706.867,2.4,2.4,0,0,1,.269,1.143,3.126,3.126,0,0,1-.227,1.215,2.538,2.538,0,0,1-.634.915,2.858,2.858,0,0,1-.981.574,3.775,3.775,0,0,1-1.268.2H-64.7v3.182Zm0-7.728v3.493h1.316a1.564,1.564,0,0,0,.521-.09,1.311,1.311,0,0,0,.473-.293,1.433,1.433,0,0,0,.347-.568,2.69,2.69,0,0,0,.131-.9,2.442,2.442,0,0,0-.06-.5,1.433,1.433,0,0,0-.245-.538,1.45,1.45,0,0,0-.521-.431,1.934,1.934,0,0,0-.885-.173H-64.7Z" transform="translate(66.131 -52.174)" fill="#fff"/>
      <path id="Path_26525" data-name="Path 26525" d="M-50.673,56.337a6.477,6.477,0,0,1-.234,1.86A4.625,4.625,0,0,1-51.5,59.49a3.043,3.043,0,0,1-.808.82,4.051,4.051,0,0,1-.867.449,3.583,3.583,0,0,1-.766.192,5.1,5.1,0,0,1-.514.04h-3.337V52.174h2.656a5.046,5.046,0,0,1,1.956.353,4.06,4.06,0,0,1,1.4.939,3.854,3.854,0,0,1,.831,1.333A4.416,4.416,0,0,1-50.673,56.337Zm-4.259,3.6a2.377,2.377,0,0,0,2.105-.933,4.735,4.735,0,0,0,.646-2.7,4.579,4.579,0,0,0-.131-1.089,2.329,2.329,0,0,0-.508-.975,2.683,2.683,0,0,0-1.023-.706,4.4,4.4,0,0,0-1.675-.27h-.837v6.675Z" transform="translate(65.088 -52.174)" fill="#fff"/>
      <path id="Path_26526" data-name="Path 26526" d="M-45.818,53.263v2.775h3.685v.981h-3.685v3.972h-1.459V52.174h5.514v1.089Z" transform="translate(63.774 -52.174)" fill="#fff"/>
    </g>
  </g>
</svg>
