<svg xmlns="http://www.w3.org/2000/svg" width="18.538" height="20" viewBox="0 0 18.538 20">
  <g id="Logout" transform="translate(-776.518 -239.803)">
    <path id="Path_26532" data-name="Path 26532" d="M777.665,249.8c0,2.083,0,4.165,0,6.248a2.555,2.555,0,0,0,2.088,2.558,3.312,3.312,0,0,0,.621.052c1.64,0,3.28,0,4.92,0a1.215,1.215,0,0,1,.328.03.559.559,0,0,1,.394.583.573.573,0,0,1-.5.523,1.026,1.026,0,0,1-.136.005c-1.712,0-3.423.008-5.135,0a3.692,3.692,0,0,1-3.649-2.983,4.209,4.209,0,0,1-.073-.833c0-4.12.008-8.239-.009-12.359a3.728,3.728,0,0,1,2.51-3.6,4.059,4.059,0,0,1,1.2-.2c1.75-.022,3.5-.01,5.252-.009a.574.574,0,0,1,.613.484.556.556,0,0,1-.384.625,1.185,1.185,0,0,1-.328.032c-1.686,0-3.371,0-5.057,0a2.591,2.591,0,0,0-2.664,2.658Q777.668,246.7,777.665,249.8Z" transform="translate(0 0)" fill="#373737"/>
    <path id="Path_26533" data-name="Path 26533" d="M871.412,353.7h-.265q-5.583,0-11.166,0a1.351,1.351,0,0,1-.347-.035.564.564,0,0,1,.058-1.093,1.968,1.968,0,0,1,.33-.02h11.391c-.077-.083-.121-.133-.168-.179q-1.2-1.2-2.4-2.4a.66.66,0,0,1-.244-.47.547.547,0,0,1,.293-.514.535.535,0,0,1,.606.035,1.235,1.235,0,0,1,.16.142l3.465,3.464a.6.6,0,0,1,0,.991q-1.745,1.747-3.491,3.494a.6.6,0,0,1-.611.208.567.567,0,0,1-.273-.934c.172-.195.364-.372.548-.556l1.96-1.96C871.3,353.825,871.341,353.778,871.412,353.7Z" transform="translate(-78.329 -103.317)" fill="#373737"/>
  </g>
</svg>
