<svg xmlns="http://www.w3.org/2000/svg" width="25.5" height="22.461" viewBox="0 0 25.5 22.461">
  <g id="Group_5517" data-name="Group 5517" transform="translate(-355 -89.001)">
    <g id="Group_5516" data-name="Group 5516" transform="translate(355 89.001)">
      <g id="Group_5515" data-name="Group 5515" transform="translate(0 0)">
        <path id="Path_26503" data-name="Path 26503" d="M379.75,109.964h-24a.749.749,0,1,0,0,1.5h24a.749.749,0,1,0,0-1.5ZM358,93.054v8.674a.75.75,0,0,0,1.5,0V93.054l2.78-2.775A.748.748,0,0,0,361.75,89h-6a.748.748,0,0,0-.53,1.278Zm-.75,10.92a.749.749,0,0,0-.75.749v3.743H361v-3.743a.749.749,0,0,0-.75-.749Zm9.75-2.246a.749.749,0,0,0-.75-.749h-3a.749.749,0,0,0-.75.749v6.738H367v-6.738Zm6-2.995a.749.749,0,0,0-.75-.749h-3a.749.749,0,0,0-.75.749v9.733H373V98.734Zm6-2.995a.749.749,0,0,0-.75-.749h-3a.749.749,0,0,0-.75.749v12.728H379V95.739Z" transform="translate(-355 -89.001)" fill="#22bba7"/>
      </g>
    </g>
  </g>
</svg>
